<svg width="364" height="364" viewBox="0 0 364 364" fill="none" xmlns="http://www.w3.org/2000/svg">
<path d="M309.837 233.339C310.996 224.055 311.176 214.675 310.376 205.354C303.824 123.818 238.908 37.5138 165.788 57.5193C140.504 64.428 121.802 83.305 110.656 110.423C102.473 130.312 96.6713 153.608 83.3635 169.515C61.5235 195.65 35.199 236.535 68.3157 272.236C101.432 307.937 142.069 284.757 176.686 282.915C205.806 281.365 235.195 292.758 264.206 288.659C291.761 284.764 306.088 262.08 309.837 233.339Z" fill="#66A0F8"/>
<path opacity="0.8" d="M309.837 233.339C310.996 224.055 311.176 214.675 310.376 205.354C303.824 123.818 238.908 37.5138 165.788 57.5193C140.504 64.428 121.802 83.305 110.656 110.423C102.473 130.312 96.6713 153.608 83.3635 169.515C61.5235 195.65 35.199 236.535 68.3157 272.236C101.432 307.937 142.069 284.757 176.686 282.915C205.806 281.365 235.195 292.758 264.206 288.659C291.761 284.764 306.088 262.08 309.837 233.339Z" fill="white"/>
<path d="M301.713 116.851C298.466 115.082 296.988 116.553 295.808 115.082C294.629 113.612 299.055 109.768 290.203 105.931C290.203 105.931 289.613 97.6685 277.514 97.37C265.414 97.0716 268.632 105.633 265.407 107.7C262.182 109.768 261.279 106.521 258.033 108.589C254.786 110.656 256.263 114.784 253.606 115.373C250.949 115.963 247.404 112.716 244.142 114.784C240.881 116.851 240.903 118.62 239.425 118.62C237.947 118.62 234.999 117.441 233.222 118.62C231.446 119.8 229.386 121.278 229.386 121.278H304.071C304.071 121.278 304.959 118.62 301.713 116.851Z" fill="white" stroke="#263238" stroke-linecap="round" stroke-linejoin="round"/>
<path d="M114.5 160.539C112.862 159.643 112.112 160.386 111.515 159.643C110.918 158.901 113.16 156.957 108.683 155.02C108.683 155.02 108.385 150.849 102.277 150.703C96.1688 150.558 97.8068 154.875 96.1615 155.916C94.5162 156.957 94.0794 155.319 92.4414 156.367C90.8034 157.415 91.546 159.498 90.1992 159.796C88.8524 160.095 87.0688 158.449 85.4308 159.498C83.7928 160.546 83.7928 161.434 83.0502 161.434C82.3077 161.434 80.808 160.837 79.9198 161.434C79.0317 162.031 77.9761 162.774 77.9761 162.774H115.694C115.694 162.774 116.138 161.434 114.5 160.539Z" fill="white" stroke="#263238" stroke-linecap="round" stroke-linejoin="round"/>
<path d="M182.932 95.7466C181.294 94.8512 180.544 95.5937 179.947 94.8511C179.35 94.1086 181.592 92.1648 177.115 90.2284C177.115 90.2284 176.817 86.0569 170.709 85.9113C164.601 85.7657 166.239 90.0827 164.594 91.1238C162.948 92.1648 162.512 90.5268 160.874 91.5752C159.236 92.6235 159.978 94.7056 158.631 95.004C157.285 95.3025 155.501 93.6572 153.863 94.7055C152.225 95.7539 152.225 96.642 151.482 96.642C150.74 96.642 149.24 96.0451 148.352 96.642C147.464 97.239 146.408 97.9815 146.408 97.9815H184.126C184.126 97.9815 184.57 96.642 182.932 95.7466Z" fill="white" stroke="#263238" stroke-linecap="round" stroke-linejoin="round"/>
<path d="M280.841 293.144H315.952C315.282 288.856 312.523 289.613 312.159 282.952C311.977 279.603 315.071 275.461 314.809 271.064C314.584 267.424 311.009 263.725 310.732 259.576C310.485 255.834 313.535 251.684 313.237 247.651C312.96 243.844 309.335 240.182 309.014 236.221C308.694 232.261 311.686 228.162 311.337 224.26C310.987 220.358 307.296 216.755 306.91 212.904C306.525 209.052 309.393 204.684 308.956 200.892C308.483 196.873 304.69 193.393 304.173 189.688C303.598 185.56 306.292 181.156 305.629 177.596C304.857 173.228 300.795 170.068 299.943 166.85C298.349 160.852 298.546 155.064 296.667 154.693C294.658 154.285 294.2 159.956 292.678 166.29C291.95 169.478 287.939 172.703 287.291 177.071C286.759 180.61 289.569 184.905 289.111 189.018C288.696 192.694 284.998 196.232 284.641 200.236C284.299 204 287.305 208.15 287.007 212.081C286.708 216.012 283.127 219.558 282.879 223.438C282.632 227.318 285.726 231.395 285.515 235.224C285.303 239.053 281.78 242.868 281.598 246.654C281.409 250.65 284.561 254.662 284.408 258.396C284.241 262.51 280.768 266.281 280.637 269.877C280.477 274.245 283.68 278.263 283.585 281.583C283.367 288.798 280.069 287.305 279.945 293.107L280.841 293.144Z" fill="#66A0F8"/>
<path opacity="0.5" d="M280.841 293.144H315.952C315.282 288.856 312.523 289.613 312.159 282.952C311.977 279.603 315.071 275.461 314.809 271.064C314.584 267.424 311.009 263.725 310.732 259.576C310.485 255.834 313.535 251.684 313.237 247.651C312.96 243.844 309.335 240.182 309.014 236.221C308.694 232.261 311.686 228.162 311.337 224.26C310.987 220.358 307.296 216.755 306.91 212.904C306.525 209.052 309.393 204.684 308.956 200.892C308.483 196.873 304.69 193.393 304.173 189.688C303.598 185.56 306.292 181.156 305.629 177.596C304.857 173.228 300.795 170.068 299.943 166.85C298.349 160.852 298.546 155.064 296.667 154.693C294.658 154.285 294.2 159.956 292.678 166.29C291.95 169.478 287.939 172.703 287.291 177.071C286.759 180.61 289.569 184.905 289.111 189.018C288.696 192.694 284.998 196.232 284.641 200.236C284.299 204 287.305 208.15 287.007 212.081C286.708 216.012 283.127 219.558 282.879 223.438C282.632 227.318 285.726 231.395 285.515 235.224C285.303 239.053 281.78 242.868 281.598 246.654C281.409 250.65 284.561 254.662 284.408 258.396C284.241 262.51 280.768 266.281 280.637 269.877C280.477 274.245 283.68 278.263 283.585 281.583C283.367 288.798 280.069 287.305 279.945 293.107L280.841 293.144Z" fill="white"/>
<path d="M295.903 166.232V291.528" stroke="#263238" stroke-miterlimit="10"/>
<path d="M301.377 179.365L295.67 184.293L290.996 178.062" stroke="#263238" stroke-miterlimit="10"/>
<path d="M301.377 201.176L295.67 206.104L290.996 199.872" stroke="#263238" stroke-miterlimit="10"/>
<path d="M301.377 221.683L295.67 226.619L290.996 220.387" stroke="#263238" stroke-miterlimit="10"/>
<path d="M301.377 246.093L295.67 251.022L290.996 244.79" stroke="#263238" stroke-miterlimit="10"/>
<path d="M301.377 270.758L295.67 275.686L290.996 269.455" stroke="#263238" stroke-miterlimit="10"/>
<path d="M44.408 293.144H79.4976C78.8206 288.856 76.0688 289.613 75.6975 282.952C75.5155 279.603 78.6095 275.461 78.3474 271.063C78.129 267.424 74.5545 263.725 74.2779 259.576C74.0231 255.834 77.0734 251.684 76.7822 247.651C76.4983 243.844 72.8801 240.182 72.5598 236.221C72.2395 232.261 75.2316 228.162 74.8821 224.26C74.5327 220.358 70.8417 216.755 70.4486 212.904C70.0555 209.052 72.9384 204.684 72.4943 200.892C72.0284 196.873 68.2282 193.393 67.7186 189.688C67.1435 185.56 69.8298 181.155 69.1746 177.596C68.4029 173.228 64.3407 170.068 63.4816 166.85C61.9456 160.888 62.1421 155.064 60.2639 154.7C58.2546 154.292 57.796 159.963 56.2745 166.297C55.5464 169.486 51.5352 172.711 50.88 177.079C50.3558 180.617 53.1659 184.912 52.7 189.025C52.2923 192.702 48.594 196.24 48.23 200.244C47.8952 204.007 50.8945 208.157 50.6033 212.088C50.3121 216.019 46.7231 219.565 46.4756 223.445C46.228 227.325 49.322 231.402 49.1109 235.231C48.8998 239.061 45.369 242.875 45.187 246.661C44.9977 250.658 48.1572 254.669 48.0044 258.404C47.8296 262.517 44.3644 266.288 44.226 269.884C44.0732 274.252 47.2764 278.271 47.138 281.59C46.9269 288.805 43.6218 287.312 43.498 293.115L44.408 293.144Z" fill="#66A0F8"/>
<path opacity="0.5" d="M44.408 293.144H79.4976C78.8206 288.856 76.0688 289.613 75.6975 282.952C75.5155 279.603 78.6095 275.461 78.3474 271.063C78.129 267.424 74.5545 263.725 74.2779 259.576C74.0231 255.834 77.0734 251.684 76.7822 247.651C76.4983 243.844 72.8801 240.182 72.5598 236.221C72.2395 232.261 75.2316 228.162 74.8821 224.26C74.5327 220.358 70.8417 216.755 70.4486 212.904C70.0555 209.052 72.9384 204.684 72.4943 200.892C72.0284 196.873 68.2282 193.393 67.7186 189.688C67.1435 185.56 69.8298 181.155 69.1746 177.596C68.4029 173.228 64.3407 170.068 63.4816 166.85C61.9456 160.888 62.1421 155.064 60.2639 154.7C58.2546 154.292 57.796 159.963 56.2745 166.297C55.5464 169.486 51.5352 172.711 50.88 177.079C50.3558 180.617 53.1659 184.912 52.7 189.025C52.2923 192.702 48.594 196.24 48.23 200.244C47.8952 204.007 50.8945 208.157 50.6033 212.088C50.3121 216.019 46.7231 219.565 46.4756 223.445C46.228 227.325 49.322 231.402 49.1109 235.231C48.8998 239.061 45.369 242.875 45.187 246.661C44.9977 250.658 48.1572 254.669 48.0044 258.404C47.8296 262.517 44.3644 266.288 44.226 269.884C44.0732 274.252 47.2764 278.271 47.138 281.59C46.9269 288.805 43.6218 287.312 43.498 293.115L44.408 293.144Z" fill="white"/>
<path d="M59.4922 166.232V291.528" stroke="#263238" stroke-miterlimit="10"/>
<path d="M64.974 179.365L59.2592 184.293L54.5854 178.062" stroke="#263238" stroke-miterlimit="10"/>
<path d="M64.974 201.176L59.2592 206.104L54.5854 199.872" stroke="#263238" stroke-miterlimit="10"/>
<path d="M64.974 221.683L59.2592 226.619L54.5854 220.387" stroke="#263238" stroke-miterlimit="10"/>
<path d="M64.974 246.093L59.2592 251.022L54.5854 244.79" stroke="#263238" stroke-miterlimit="10"/>
<path d="M64.974 270.758L59.2592 275.686L54.5854 269.455" stroke="#263238" stroke-miterlimit="10"/>
<path d="M229.109 293.144H255.317C254.815 289.941 252.754 290.508 252.485 285.536C252.347 283.039 254.669 279.945 254.458 276.655C254.298 273.946 251.626 271.173 251.422 268.079C251.233 265.283 253.512 262.182 253.286 259.175C253.082 256.321 250.374 253.591 250.134 250.636C249.893 247.68 252.128 244.608 251.888 241.696C251.648 238.784 248.867 236.098 248.576 233.222C248.284 230.346 250.432 227.078 250.104 224.246C249.755 221.239 246.916 218.647 246.537 215.881C246.108 212.794 248.117 209.504 247.644 206.847C247.069 203.585 244.004 201.226 243.392 198.839C242.184 194.376 242.329 190.008 240.968 189.739C239.607 189.469 239.126 193.67 237.983 198.402C237.415 200.782 234.445 203.192 233.957 206.453C233.564 209.096 235.661 212.277 235.319 215.379C235.013 218.123 232.247 220.766 231.977 223.758C231.722 226.568 233.972 229.669 233.746 232.603C233.521 235.537 230.834 238.187 230.667 241.084C230.499 243.982 232.793 247.025 232.64 249.893C232.487 252.762 229.844 255.601 229.728 258.425C229.589 261.41 231.912 264.424 231.832 267.161C231.701 270.234 229.109 273.051 229.007 275.73C228.898 278.991 231.286 281.998 231.191 284.466C231.031 289.853 228.563 288.739 228.476 293.071L229.109 293.144Z" fill="#66A0F8"/>
<path opacity="0.5" d="M229.109 293.144H255.317C254.815 289.941 252.754 290.508 252.485 285.536C252.347 283.039 254.669 279.945 254.458 276.655C254.298 273.946 251.626 271.173 251.422 268.079C251.233 265.283 253.512 262.182 253.286 259.175C253.082 256.321 250.374 253.591 250.134 250.636C249.893 247.68 252.128 244.608 251.888 241.696C251.648 238.784 248.867 236.098 248.576 233.222C248.284 230.346 250.432 227.078 250.104 224.246C249.755 221.239 246.916 218.647 246.537 215.881C246.108 212.794 248.117 209.504 247.644 206.847C247.069 203.585 244.004 201.226 243.392 198.839C242.184 194.376 242.329 190.008 240.968 189.739C239.607 189.469 239.126 193.67 237.983 198.402C237.415 200.782 234.445 203.192 233.957 206.453C233.564 209.096 235.661 212.277 235.319 215.379C235.013 218.123 232.247 220.766 231.977 223.758C231.722 226.568 233.972 229.669 233.746 232.603C233.521 235.537 230.834 238.187 230.667 241.084C230.499 243.982 232.793 247.025 232.64 249.893C232.487 252.762 229.844 255.601 229.728 258.425C229.589 261.41 231.912 264.424 231.832 267.161C231.701 270.234 229.109 273.051 229.007 275.73C228.898 278.991 231.286 281.998 231.191 284.466C231.031 289.853 228.563 288.739 228.476 293.071L229.109 293.144Z" fill="white"/>
<path d="M240.356 198.351V291.935" stroke="#263238" stroke-miterlimit="10"/>
<path d="M244.448 208.164L240.182 211.848L236.688 207.189" stroke="#263238" stroke-miterlimit="10"/>
<path d="M244.448 224.45L240.182 228.133L236.688 223.481" stroke="#263238" stroke-miterlimit="10"/>
<path d="M244.448 239.774L240.182 243.458L236.688 238.799" stroke="#263238" stroke-miterlimit="10"/>
<path d="M244.448 257.996L240.182 261.687L236.688 257.028" stroke="#263238" stroke-miterlimit="10"/>
<path d="M244.448 276.422L240.182 280.105L236.688 275.453" stroke="#263238" stroke-miterlimit="10"/>
<path d="M312.829 293.144H339.037C338.534 289.941 336.474 290.508 336.205 285.536C336.066 283.039 338.389 279.945 338.178 276.655C338.017 273.946 335.346 271.173 335.142 268.079C334.953 265.283 337.231 262.182 337.006 259.175C336.802 256.321 334.094 253.591 333.853 250.636C333.613 247.68 335.848 244.608 335.608 241.696C335.368 238.784 332.587 236.098 332.295 233.222C332.004 230.346 334.152 227.078 333.824 224.246C333.475 221.239 330.636 218.647 330.257 215.881C329.827 212.794 331.837 209.504 331.364 206.847C330.788 203.585 327.724 201.226 327.112 198.839C325.904 194.376 326.049 190.008 324.688 189.739C323.326 189.469 322.846 193.67 321.703 198.402C321.135 200.782 318.165 203.192 317.677 206.453C317.284 209.096 319.381 212.277 319.039 215.379C318.733 218.123 315.966 220.766 315.697 223.758C315.442 226.568 317.692 229.669 317.466 232.603C317.24 235.537 314.554 238.187 314.387 241.084C314.219 243.982 316.512 247.025 316.359 249.893C316.207 252.762 313.564 255.601 313.447 258.425C313.309 261.41 315.631 264.424 315.551 267.161C315.42 270.234 312.829 273.051 312.727 275.73C312.618 278.991 315.005 281.998 314.911 284.466C314.751 289.853 312.283 288.739 312.195 293.071L312.829 293.144Z" fill="#66A0F8"/>
<path opacity="0.5" d="M312.829 293.144H339.037C338.534 289.941 336.474 290.508 336.205 285.536C336.066 283.039 338.389 279.945 338.178 276.655C338.017 273.946 335.346 271.173 335.142 268.079C334.953 265.283 337.231 262.182 337.006 259.175C336.802 256.321 334.094 253.591 333.853 250.636C333.613 247.68 335.848 244.608 335.608 241.696C335.368 238.784 332.587 236.098 332.295 233.222C332.004 230.346 334.152 227.078 333.824 224.246C333.475 221.239 330.636 218.647 330.257 215.881C329.827 212.794 331.837 209.504 331.364 206.847C330.788 203.585 327.724 201.226 327.112 198.839C325.904 194.376 326.049 190.008 324.688 189.739C323.326 189.469 322.846 193.67 321.703 198.402C321.135 200.782 318.165 203.192 317.677 206.453C317.284 209.096 319.381 212.277 319.039 215.379C318.733 218.123 315.966 220.766 315.697 223.758C315.442 226.568 317.692 229.669 317.466 232.603C317.24 235.537 314.554 238.187 314.387 241.084C314.219 243.982 316.512 247.025 316.359 249.893C316.207 252.762 313.564 255.601 313.447 258.425C313.309 261.41 315.631 264.424 315.551 267.161C315.42 270.234 312.829 273.051 312.727 275.73C312.618 278.991 315.005 281.998 314.911 284.466C314.751 289.853 312.283 288.739 312.195 293.071L312.829 293.144Z" fill="white"/>
<path d="M324.077 198.351V291.935" stroke="#263238" stroke-miterlimit="10"/>
<path d="M328.168 208.164L323.902 211.848L320.407 207.189" stroke="#263238" stroke-miterlimit="10"/>
<path d="M328.168 224.45L323.902 228.133L320.407 223.481" stroke="#263238" stroke-miterlimit="10"/>
<path d="M328.168 239.774L323.902 243.458L320.407 238.799" stroke="#263238" stroke-miterlimit="10"/>
<path d="M328.168 257.996L323.902 261.687L320.407 257.028" stroke="#263238" stroke-miterlimit="10"/>
<path d="M328.168 276.422L323.902 280.105L320.407 275.453" stroke="#263238" stroke-miterlimit="10"/>
<path d="M200.2 293.144H226.408C225.899 289.941 223.846 290.508 223.569 285.536C223.431 283.039 225.753 279.945 225.549 276.655C225.382 273.946 222.717 271.173 222.506 268.079C222.317 265.283 224.595 262.182 224.377 259.175C224.166 256.321 221.465 253.591 221.225 250.636C220.985 247.68 223.22 244.615 222.957 241.696C222.695 238.777 219.944 236.098 219.645 233.222C219.347 230.346 221.509 227.078 221.174 224.246C220.824 221.239 217.992 218.647 217.607 215.881C217.177 212.794 219.186 209.504 218.713 206.847C218.138 203.585 215.11 201.226 214.469 198.839C213.304 194.376 213.443 190.008 212.037 189.739C210.632 189.469 210.196 193.67 209.06 198.402C208.485 200.782 205.522 203.192 205.034 206.453C204.634 209.096 206.738 212.277 206.388 215.379C206.082 218.123 203.323 220.766 203.054 223.758C202.799 226.568 205.041 229.669 204.823 232.603C204.605 235.537 201.911 238.187 201.736 241.084C201.562 243.982 203.869 247.025 203.709 249.893C203.549 252.762 200.914 255.601 200.797 258.425C200.652 261.41 202.981 264.424 202.894 267.161C202.77 270.234 200.171 273.051 200.076 275.73C199.96 278.991 202.355 281.998 202.26 284.466C202.1 289.853 199.64 288.739 199.552 293.071L200.2 293.144Z" fill="#66A0F8"/>
<path opacity="0.5" d="M200.2 293.144H226.408C225.899 289.941 223.846 290.508 223.569 285.536C223.431 283.039 225.753 279.945 225.549 276.655C225.382 273.946 222.717 271.173 222.506 268.079C222.317 265.283 224.595 262.182 224.377 259.175C224.166 256.321 221.465 253.591 221.225 250.636C220.985 247.68 223.22 244.615 222.957 241.696C222.695 238.777 219.944 236.098 219.645 233.222C219.347 230.346 221.509 227.078 221.174 224.246C220.824 221.239 217.992 218.647 217.607 215.881C217.177 212.794 219.186 209.504 218.713 206.847C218.138 203.585 215.11 201.226 214.469 198.839C213.304 194.376 213.443 190.008 212.037 189.739C210.632 189.469 210.196 193.67 209.06 198.402C208.485 200.782 205.522 203.192 205.034 206.453C204.634 209.096 206.738 212.277 206.388 215.379C206.082 218.123 203.323 220.766 203.054 223.758C202.799 226.568 205.041 229.669 204.823 232.603C204.605 235.537 201.911 238.187 201.736 241.084C201.562 243.982 203.869 247.025 203.709 249.893C203.549 252.762 200.914 255.601 200.797 258.425C200.652 261.41 202.981 264.424 202.894 267.161C202.77 270.234 200.171 273.051 200.076 275.73C199.96 278.991 202.355 281.998 202.26 284.466C202.1 289.853 199.64 288.739 199.552 293.071L200.2 293.144Z" fill="white"/>
<path d="M211.462 198.351V291.935" stroke="#263238" stroke-miterlimit="10"/>
<path d="M215.553 208.164L211.287 211.848L207.8 207.189" stroke="#263238" stroke-miterlimit="10"/>
<path d="M215.553 224.45L211.287 228.133L207.8 223.481" stroke="#263238" stroke-miterlimit="10"/>
<path d="M215.553 239.774L211.287 243.458L207.8 238.799" stroke="#263238" stroke-miterlimit="10"/>
<path d="M215.553 257.996L211.287 261.687L207.8 257.028" stroke="#263238" stroke-miterlimit="10"/>
<path d="M215.553 276.422L211.287 280.105L207.8 275.453" stroke="#263238" stroke-miterlimit="10"/>
<path d="M149.313 293.144H175.521C175.019 289.941 172.958 290.508 172.689 285.536C172.551 283.039 174.873 279.945 174.662 276.655C174.502 273.946 171.83 271.173 171.626 268.079C171.437 265.283 173.715 262.182 173.497 259.175C173.286 256.321 170.585 253.591 170.338 250.636C170.09 247.68 172.34 244.615 172.077 241.696C171.815 238.777 169.056 236.098 168.765 233.222C168.474 230.346 170.621 227.078 170.294 224.246C169.944 221.239 167.105 218.647 166.727 215.881C166.297 212.794 168.306 209.504 167.833 206.847C167.258 203.585 164.193 201.226 163.582 198.839C162.395 194.361 162.541 190.037 161.143 189.76C159.636 189.462 159.301 193.692 158.158 198.424C157.59 200.804 154.62 203.214 154.132 206.475C153.739 209.118 155.836 212.299 155.494 215.401C155.188 218.145 152.421 220.788 152.152 223.78C151.897 226.59 154.147 229.691 153.921 232.625C153.695 235.559 151.009 238.209 150.842 241.106C150.674 244.004 152.967 247.047 152.815 249.915C152.662 252.783 150.019 255.623 149.903 258.447C149.764 261.432 152.087 264.446 152.006 267.183C151.875 270.255 149.284 273.073 149.182 275.752C149.073 279.013 151.46 282.02 151.366 284.488C151.206 289.875 148.738 288.761 148.65 293.093L149.313 293.144Z" fill="#66A0F8"/>
<path opacity="0.5" d="M149.313 293.144H175.521C175.019 289.941 172.958 290.508 172.689 285.536C172.551 283.039 174.873 279.945 174.662 276.655C174.502 273.946 171.83 271.173 171.626 268.079C171.437 265.283 173.715 262.182 173.497 259.175C173.286 256.321 170.585 253.591 170.338 250.636C170.09 247.68 172.34 244.615 172.077 241.696C171.815 238.777 169.056 236.098 168.765 233.222C168.474 230.346 170.621 227.078 170.294 224.246C169.944 221.239 167.105 218.647 166.727 215.881C166.297 212.794 168.306 209.504 167.833 206.847C167.258 203.585 164.193 201.226 163.582 198.839C162.395 194.361 162.541 190.037 161.143 189.76C159.636 189.462 159.301 193.692 158.158 198.424C157.59 200.804 154.62 203.214 154.132 206.475C153.739 209.118 155.836 212.299 155.494 215.401C155.188 218.145 152.421 220.788 152.152 223.78C151.897 226.59 154.147 229.691 153.921 232.625C153.695 235.559 151.009 238.209 150.842 241.106C150.674 244.004 152.967 247.047 152.815 249.915C152.662 252.783 150.019 255.623 149.903 258.447C149.764 261.432 152.087 264.446 152.006 267.183C151.875 270.255 149.284 273.073 149.182 275.752C149.073 279.013 151.46 282.02 151.366 284.488C151.206 289.875 148.738 288.761 148.65 293.093L149.313 293.144Z" fill="white"/>
<path d="M160.561 198.351V291.935" stroke="#263238" stroke-miterlimit="10"/>
<path d="M164.652 208.164L160.386 211.848L156.891 207.189" stroke="#263238" stroke-miterlimit="10"/>
<path d="M164.652 224.45L160.386 228.133L156.891 223.481" stroke="#263238" stroke-miterlimit="10"/>
<path d="M164.652 239.774L160.386 243.458L156.891 238.799" stroke="#263238" stroke-miterlimit="10"/>
<path d="M164.652 257.996L160.386 261.687L156.891 257.028" stroke="#263238" stroke-miterlimit="10"/>
<path d="M164.652 276.422L160.386 280.105L156.891 275.453" stroke="#263238" stroke-miterlimit="10"/>
<path d="M85.2708 284.896H107.271C106.849 282.202 105.123 282.712 104.89 278.504C104.774 276.407 106.718 273.808 106.55 271.049C106.412 268.778 104.17 266.448 103.995 263.849C103.842 261.498 105.757 258.899 105.567 256.372C105.393 253.977 103.121 251.684 102.918 249.202C102.714 246.719 104.599 244.149 104.374 241.703C104.148 239.257 101.847 237 101.6 234.583C101.352 232.167 103.158 229.429 102.881 227.049C102.59 224.53 100.209 222.346 99.8818 220.023C99.5251 217.439 101.214 214.673 100.814 212.438C100.333 209.7 97.7852 207.72 97.2464 205.704C96.2491 201.94 96.3728 198.314 95.1935 198.082C94.0141 197.849 93.6501 201.379 92.6964 205.362C92.216 207.356 89.7262 209.38 89.3185 212.117C88.9836 214.338 90.7745 217.031 90.4542 219.608C90.1994 221.916 87.8771 224.137 87.6514 226.648C87.4403 229.007 89.3258 231.606 89.1074 234.074C88.889 236.542 86.6759 238.755 86.523 241.194C86.3701 243.632 88.3066 246.18 88.1756 248.583C88.0445 250.985 85.8314 253.38 85.7149 255.754C85.5984 258.258 87.5786 260.791 87.4767 263.114C87.3748 265.691 85.1908 268.057 85.1107 270.314C85.016 273.044 87.0253 275.57 86.9598 277.652C86.8288 282.18 84.7758 281.241 84.6812 284.881L85.2708 284.896Z" fill="#66A0F8"/>
<path opacity="0.5" d="M85.2708 284.896H107.271C106.849 282.202 105.123 282.712 104.89 278.504C104.774 276.407 106.718 273.808 106.55 271.049C106.412 268.778 104.17 266.448 103.995 263.849C103.842 261.498 105.757 258.899 105.567 256.372C105.393 253.977 103.121 251.684 102.918 249.202C102.714 246.719 104.599 244.149 104.374 241.703C104.148 239.257 101.847 237 101.6 234.583C101.352 232.167 103.158 229.429 102.881 227.049C102.59 224.53 100.209 222.346 99.8818 220.023C99.5251 217.439 101.214 214.673 100.814 212.438C100.333 209.7 97.7852 207.72 97.2464 205.704C96.2491 201.94 96.3728 198.314 95.1935 198.082C94.0141 197.849 93.6501 201.379 92.6964 205.362C92.216 207.356 89.7262 209.38 89.3185 212.117C88.9836 214.338 90.7745 217.031 90.4542 219.608C90.1994 221.916 87.8771 224.137 87.6514 226.648C87.4403 229.007 89.3258 231.606 89.1074 234.074C88.889 236.542 86.6759 238.755 86.523 241.194C86.3701 243.632 88.3066 246.18 88.1756 248.583C88.0445 250.985 85.8314 253.38 85.7149 255.754C85.5984 258.258 87.5786 260.791 87.4767 263.114C87.3748 265.691 85.1908 268.057 85.1107 270.314C85.016 273.044 87.0253 275.57 86.9598 277.652C86.8288 282.18 84.7758 281.241 84.6812 284.881L85.2708 284.896Z" fill="white"/>
<path d="M94.7129 205.311V283.876" stroke="#263238" stroke-miterlimit="10"/>
<path d="M98.149 213.544L94.5672 216.638L91.6406 212.729" stroke="#263238" stroke-miterlimit="10"/>
<path d="M98.149 227.223L94.5672 230.317L91.6406 226.408" stroke="#263238" stroke-miterlimit="10"/>
<path d="M98.149 240.08L94.5672 243.174L91.6406 239.272" stroke="#263238" stroke-miterlimit="10"/>
<path d="M98.149 255.39L94.5672 258.476L91.6406 254.574" stroke="#263238" stroke-miterlimit="10"/>
<path d="M98.149 270.852L94.5672 273.946L91.6406 270.037" stroke="#263238" stroke-miterlimit="10"/>
<path d="M118.598 293.144H150.747C150.128 289.213 147.602 289.904 147.267 283.811C147.1 280.746 149.939 276.946 149.699 272.891C149.495 269.564 146.219 266.164 145.964 262.364C145.738 258.935 148.526 255.135 148.257 251.444C148.002 247.95 144.683 244.601 144.391 240.968C144.1 237.335 146.837 233.586 146.517 230.004C146.197 226.423 142.819 223.139 142.455 219.608C142.091 216.078 144.741 212.074 144.333 208.601C143.904 204.91 140.424 201.729 139.965 198.336C139.441 194.551 141.909 190.51 141.326 187.249C140.599 183.252 136.9 180.355 136.114 177.406C134.658 171.91 134.84 166.61 133.115 166.261C131.28 165.897 130.858 171.087 129.475 176.897C128.747 179.809 125.107 182.764 124.539 186.768C124.051 190.008 126.628 193.954 126.206 197.688C125.827 201.059 122.435 204.299 122.107 207.968C121.794 211.418 124.546 215.248 124.291 218.822C124.036 222.397 120.739 225.673 120.513 229.225C120.287 232.778 123.126 236.505 122.93 240.029C122.733 243.552 119.501 247.032 119.334 250.497C119.159 254.137 122.056 257.865 121.911 261.265C121.758 265.028 118.569 268.486 118.453 271.777C118.314 275.774 121.248 279.465 121.154 282.508C120.957 289.118 117.936 287.749 117.827 293.064L118.598 293.144Z" fill="#66A0F8"/>
<path opacity="0.5" d="M118.598 293.144H150.747C150.128 289.213 147.602 289.904 147.267 283.811C147.1 280.746 149.939 276.946 149.699 272.891C149.495 269.564 146.219 266.164 145.964 262.364C145.738 258.935 148.526 255.135 148.257 251.444C148.002 247.95 144.683 244.601 144.391 240.968C144.1 237.335 146.837 233.586 146.517 230.004C146.197 226.423 142.819 223.139 142.455 219.608C142.091 216.078 144.741 212.074 144.333 208.601C143.904 204.91 140.424 201.729 139.965 198.336C139.441 194.551 141.909 190.51 141.326 187.249C140.599 183.252 136.9 180.355 136.114 177.406C134.658 171.91 134.84 166.61 133.115 166.261C131.28 165.897 130.858 171.087 129.475 176.897C128.747 179.809 125.107 182.764 124.539 186.768C124.051 190.008 126.628 193.954 126.206 197.688C125.827 201.059 122.435 204.299 122.107 207.968C121.794 211.418 124.546 215.248 124.291 218.822C124.036 222.397 120.739 225.673 120.513 229.225C120.287 232.778 123.126 236.505 122.93 240.029C122.733 243.552 119.501 247.032 119.334 250.497C119.159 254.137 122.056 257.865 121.911 261.265C121.758 265.028 118.569 268.486 118.453 271.777C118.314 275.774 121.248 279.465 121.154 282.508C120.957 289.118 117.936 287.749 117.827 293.064L118.598 293.144Z" fill="white"/>
<path d="M132.401 176.853V291.666" stroke="#263238" stroke-miterlimit="10"/>
<path d="M137.417 188.887L132.183 193.408L127.902 187.7" stroke="#263238" stroke-miterlimit="10"/>
<path d="M137.417 208.87L132.183 213.391L127.902 207.684" stroke="#263238" stroke-miterlimit="10"/>
<path d="M137.417 227.667L132.183 232.188L127.902 226.474" stroke="#263238" stroke-miterlimit="10"/>
<path d="M137.417 250.032L132.183 254.545L127.902 248.838" stroke="#263238" stroke-miterlimit="10"/>
<path d="M137.417 272.629L132.183 277.15L127.902 271.442" stroke="#263238" stroke-miterlimit="10"/>
<path d="M342.116 283.956L336.656 281.736L331.189 283.956L325.729 281.736L320.262 283.956L314.802 281.736L309.342 283.956L303.874 281.736L298.414 283.956L292.947 281.736L287.487 283.956L282.027 281.736L276.56 283.956L271.1 281.736L265.64 283.956L260.173 281.736L254.713 283.956L249.245 281.736L243.785 283.956L238.325 281.736L232.858 283.956L227.398 281.736L221.931 283.956L216.471 281.736L211.011 283.956L205.544 281.736L200.084 283.956L194.624 281.736L189.156 283.956L183.696 281.736L178.236 283.956L172.769 281.736L167.309 283.956L161.849 281.736L156.389 283.956L150.922 281.736L145.462 283.956L140.002 281.736L134.542 283.956L129.082 281.736L123.614 283.956L118.154 281.736L112.694 283.956L107.234 281.736L101.774 283.956L96.3144 281.736L90.8544 283.956L85.3871 281.736L79.9271 283.956L74.4671 281.736L69.0071 283.956L63.5471 281.736L58.0871 283.956L52.6271 281.736L47.1671 283.956L41.7071 281.736L36.2471 283.956L30.7871 281.736L26.208 283.6V293.151H342.888V283.643L342.116 283.956Z" fill="#66A0F8"/>
<path d="M238.056 138.364C234.707 138.364 231.458 139.501 228.839 141.589C228.189 137.578 226.382 133.845 223.641 130.847C220.899 127.849 217.341 125.717 213.405 124.712C209.469 123.707 205.325 123.873 201.481 125.19C197.638 126.507 194.263 128.917 191.77 132.125C189.243 128.775 185.79 126.238 181.838 124.829C177.886 123.419 173.607 123.198 169.531 124.193C165.454 125.188 161.759 127.356 158.901 130.428C156.042 133.5 154.147 137.342 153.448 141.48C150.819 140.834 148.063 140.934 145.488 141.768C142.913 142.602 140.622 144.137 138.871 146.201C137.12 148.265 135.98 150.776 135.577 153.452C135.174 156.128 135.525 158.864 136.591 161.352C137.656 163.84 139.394 165.981 141.609 167.536C143.825 169.091 146.429 169.998 149.131 170.155C151.833 170.312 154.526 169.712 156.906 168.424C159.286 167.135 161.26 165.209 162.606 162.861C167.189 165.949 172.785 167.153 178.232 166.223C183.679 165.293 188.558 162.3 191.857 157.867C193.723 160.23 196.078 162.162 198.761 163.529C201.444 164.896 204.391 165.666 207.4 165.786C210.408 165.907 213.407 165.374 216.191 164.226C218.974 163.078 221.476 161.34 223.525 159.134C224.447 162.292 226.36 165.07 228.981 167.057C231.603 169.045 234.795 170.136 238.085 170.17C246.515 170.17 253.373 163.057 253.373 154.278C253.373 145.498 246.486 138.364 238.056 138.364Z" fill="#263238" stroke="#263238" stroke-linecap="round" stroke-linejoin="round"/>
<path d="M162.606 163.931C162.393 163.932 162.184 163.869 162.007 163.751C161.829 163.633 161.691 163.465 161.608 163.269L152.443 141.895C152.328 141.628 152.324 141.327 152.431 141.057C152.538 140.788 152.748 140.572 153.014 140.457C153.281 140.342 153.582 140.337 153.852 140.445C154.121 140.552 154.337 140.762 154.452 141.028L163.61 162.41C163.671 162.542 163.704 162.685 163.707 162.831C163.711 162.977 163.686 163.122 163.633 163.257C163.58 163.393 163.501 163.517 163.399 163.621C163.298 163.726 163.177 163.809 163.043 163.866C162.902 163.915 162.754 163.937 162.606 163.931Z" fill="white" stroke="#263238" stroke-miterlimit="10"/>
<path d="M191.857 159.301C191.471 159.301 191.1 159.148 190.827 158.874C190.554 158.601 190.401 158.231 190.401 157.845L190.313 132.096C190.313 131.709 190.467 131.339 190.74 131.066C191.013 130.793 191.383 130.64 191.769 130.64C192.156 130.64 192.526 130.793 192.799 131.066C193.072 131.339 193.225 131.709 193.225 132.096L193.313 157.838C193.313 158.224 193.159 158.594 192.886 158.867C192.613 159.14 192.243 159.294 191.857 159.294V159.301Z" fill="white" stroke="#263238" stroke-miterlimit="10"/>
<path d="M223.496 160.568C223.351 160.566 223.207 160.547 223.066 160.509C222.883 160.454 222.713 160.362 222.565 160.241C222.417 160.119 222.295 159.969 222.205 159.8C222.115 159.631 222.059 159.446 222.041 159.256C222.023 159.065 222.042 158.873 222.098 158.689L227.413 141.167C227.525 140.797 227.779 140.487 228.12 140.304C228.46 140.122 228.859 140.083 229.229 140.195C229.599 140.307 229.909 140.561 230.091 140.902C230.273 141.242 230.313 141.641 230.201 142.011L224.952 159.534C224.859 159.843 224.665 160.113 224.401 160.3C224.137 160.487 223.819 160.582 223.496 160.568Z" fill="white" stroke="#263238" stroke-miterlimit="10"/>
<path d="M230.223 147.245C230.223 147.245 247.382 140.162 251.859 140.162C256.336 140.162 253.73 141.654 251.859 143.518C249.988 145.382 249.063 147.435 249.995 149.488L230.223 147.245Z" fill="#66A0F8" stroke="#263238" stroke-linecap="round" stroke-linejoin="round"/>
<path d="M128.186 152.662C128.186 152.662 172.019 142.957 258.389 152.662C258.389 152.662 259.881 152.101 258.949 151.351C258.018 150.601 221.268 144.071 186.761 144.45C152.254 144.828 129.118 147.784 128.186 152.662Z" fill="#66A0F8" stroke="#263238" stroke-linecap="round" stroke-linejoin="round"/>
<path d="M219.587 131.018H171.094C169.341 131.018 167.92 132.439 167.92 134.192V146.495C167.92 148.248 169.341 149.67 171.094 149.67H219.587C221.34 149.67 222.761 148.248 222.761 146.495V134.192C222.761 132.439 221.34 131.018 219.587 131.018Z" fill="#66A0F8" stroke="#263238" stroke-linecap="round" stroke-linejoin="round"/>
<path d="M220.198 131.04H170.483C169.768 131.076 169.096 131.394 168.615 131.925C168.135 132.456 167.885 133.157 167.92 133.872V136.536H222.768V133.872C222.785 133.517 222.733 133.162 222.613 132.828C222.494 132.493 222.309 132.186 222.07 131.923C221.832 131.66 221.543 131.446 221.222 131.295C220.901 131.143 220.553 131.057 220.198 131.04Z" fill="white" stroke="#263238" stroke-linecap="round" stroke-linejoin="round"/>
<path d="M226.117 148.927H164.564C162.811 148.927 161.39 150.348 161.39 152.101V166.647C161.39 168.4 162.811 169.821 164.564 169.821H226.117C227.87 169.821 229.291 168.4 229.291 166.647V152.101C229.291 150.348 227.87 148.927 226.117 148.927Z" fill="#B2B2B2" stroke="#263238" stroke-linecap="round" stroke-linejoin="round"/>
<path d="M226.116 148.927H164.528C163.687 148.929 162.882 149.264 162.288 149.859C161.694 150.454 161.361 151.26 161.361 152.101V155.064H229.32V152.079C229.317 151.662 229.232 151.249 229.069 150.864C228.906 150.48 228.67 150.131 228.372 149.839C228.074 149.546 227.722 149.315 227.335 149.158C226.948 149.002 226.534 148.923 226.116 148.927Z" fill="white" stroke="#263238" stroke-linecap="round" stroke-linejoin="round"/>
<path d="M185.829 157.132H188.625V158.253C188.625 159.539 189.135 160.772 190.045 161.681C190.954 162.59 192.187 163.101 193.473 163.101H197.768C199.054 163.101 200.287 162.59 201.197 161.681C202.106 160.772 202.617 159.539 202.617 158.253V156.95H205.223" stroke="#263238" stroke-width="3" stroke-linecap="round" stroke-linejoin="round"/>
<path d="M230.048 168.896H159.803C156.747 168.894 153.795 170.004 151.497 172.019C150.012 173.317 148.852 174.945 148.111 176.773L132.27 215.859C131.743 217.163 130.901 218.317 129.82 219.217C128.739 220.118 127.453 220.737 126.075 221.021L107.525 224.821C104.003 225.54 100.7 227.081 97.8867 229.32C93.6025 232.749 90.6996 237.609 89.7113 243.006L87.4472 255.382C87.1934 256.782 87.2544 258.22 87.6259 259.592C87.9974 260.965 88.67 262.237 89.5948 263.318C90.495 264.367 91.612 265.208 92.8689 265.784C94.1257 266.359 95.4924 266.656 96.8748 266.652H118.198L134.942 276.844H217.206L262.589 270.292L272.519 269.564C273.682 269.486 274.807 269.118 275.791 268.492C276.774 267.866 277.584 267.003 278.147 265.982C279.549 263.508 280.368 260.747 280.542 257.909C280.789 251.604 279.086 245.292 275.934 239.228C272.781 233.164 268.166 232.429 262.102 212.292C256.037 192.156 253.344 182.968 247.28 176.176C241.215 169.384 230.048 168.896 230.048 168.896Z" fill="#66A0F8" stroke="#263238" stroke-linecap="round" stroke-linejoin="round"/>
<path d="M135.896 227.624V268.392C135.896 269.807 136.458 271.164 137.458 272.165C138.459 273.166 139.816 273.728 141.232 273.728H205.296C206.29 273.728 207.274 273.517 208.181 273.109C209.088 272.701 209.899 272.106 210.559 271.362C211.708 270.073 212.343 268.407 212.343 266.681V229.553" stroke="#263238" stroke-linecap="round" stroke-linejoin="round"/>
<path d="M108.836 233.324H262.444" stroke="#263238" stroke-linecap="round" stroke-linejoin="round"/>
<path d="M209.176 236.36H201.415C201.029 236.36 200.659 236.206 200.386 235.933C200.113 235.66 199.959 235.29 199.959 234.904C199.959 234.518 200.113 234.147 200.386 233.874C200.659 233.601 201.029 233.448 201.415 233.448H209.176C209.562 233.448 209.932 233.601 210.205 233.874C210.479 234.147 210.632 234.518 210.632 234.904C210.632 235.095 210.594 235.284 210.521 235.461C210.448 235.638 210.341 235.798 210.205 235.933C210.07 236.069 209.91 236.176 209.733 236.249C209.556 236.322 209.367 236.36 209.176 236.36Z" fill="#263238" stroke="#263238" stroke-linecap="round" stroke-linejoin="round"/>
<path d="M168.896 172.536H166.566C162.699 172.538 158.926 173.73 155.759 175.95C152.593 178.171 150.187 181.313 148.869 184.948L135.241 222.601C135.096 223.003 135.05 223.434 135.107 223.857C135.163 224.281 135.321 224.684 135.567 225.034C135.812 225.384 136.138 225.67 136.517 225.867C136.897 226.064 137.318 226.167 137.745 226.168H206.752C207.358 226.168 207.958 226.048 208.517 225.816C209.077 225.584 209.585 225.244 210.013 224.815C210.441 224.387 210.78 223.878 211.012 223.318C211.243 222.758 211.361 222.158 211.36 221.552V178.484C211.361 177.703 211.208 176.93 210.91 176.208C210.612 175.487 210.175 174.831 209.623 174.279C209.071 173.726 208.416 173.288 207.695 172.989C206.974 172.69 206.201 172.536 205.42 172.536H168.896Z" fill="#66A0F8"/>
<mask id="mask0_29_644" style="mask-type:luminance" maskUnits="userSpaceOnUse" x="135" y="172" width="77" height="55">
<path d="M168.896 172.536H166.566C162.699 172.538 158.926 173.73 155.759 175.95C152.593 178.171 150.187 181.313 148.869 184.948L135.241 222.601C135.096 223.003 135.05 223.434 135.107 223.857C135.163 224.281 135.321 224.684 135.567 225.034C135.812 225.384 136.138 225.67 136.517 225.867C136.897 226.064 137.318 226.167 137.745 226.168H206.752C207.358 226.168 207.958 226.048 208.517 225.816C209.077 225.584 209.585 225.244 210.013 224.815C210.441 224.387 210.78 223.878 211.012 223.318C211.243 222.758 211.361 222.158 211.36 221.552V178.484C211.361 177.703 211.208 176.93 210.91 176.208C210.612 175.487 210.175 174.831 209.623 174.279C209.071 173.726 208.416 173.288 207.695 172.989C206.974 172.69 206.201 172.536 205.42 172.536H168.896Z" fill="white"/>
</mask>
<g mask="url(#mask0_29_644)">
<path d="M204.568 200.782C204.568 200.782 211.615 206.483 213.457 210.676C215.299 214.869 217.825 226.772 217.825 226.772H175.077C175.077 226.772 186.477 213.668 191.173 209.504C195.868 205.34 204.568 200.782 204.568 200.782Z" fill="white"/>
<mask id="mask1_29_644" style="mask-type:luminance" maskUnits="userSpaceOnUse" x="175" y="200" width="43" height="27">
<path d="M204.568 200.782C204.568 200.782 211.615 206.483 213.457 210.676C215.299 214.869 217.825 226.772 217.825 226.772H175.077C175.077 226.772 186.477 213.668 191.173 209.504C195.868 205.34 204.568 200.782 204.568 200.782Z" fill="white"/>
</mask>
<g mask="url(#mask1_29_644)">
<path d="M201.496 212.227C202.406 211.317 204.219 211.681 204.219 214.585C204.272 215.348 204.043 216.104 203.574 216.709C203.105 217.313 202.43 217.723 201.678 217.861C202.729 217.88 203.771 218.065 204.765 218.407C206.221 218.953 205.675 222.047 202.581 222.775C199.487 223.503 199.123 218.953 199.123 218.953C198.687 219.579 198.321 220.251 198.031 220.955C197.485 222.229 192.389 223.139 192.753 220.045C193.117 216.951 197.485 217.315 196.757 216.951C196.029 216.587 191.479 212.409 195.301 211.127C199.123 209.846 199.305 216.223 199.305 216.223C199.305 216.223 200.586 213.137 201.496 212.227ZM212.227 208.587C212.227 208.587 212.045 202.217 208.223 203.491C204.401 204.765 208.951 208.951 209.679 209.315C210.407 209.679 206.039 209.315 205.675 212.409C205.311 215.503 210.407 214.593 210.953 213.319C211.243 212.614 211.609 211.943 212.045 211.317C212.045 211.317 212.409 215.859 215.503 215.131C218.597 214.403 219.143 211.317 217.687 210.763C216.692 210.421 215.651 210.237 214.6 210.217C215.352 210.079 216.027 209.669 216.496 209.065C216.965 208.46 217.194 207.704 217.141 206.941C217.141 204.029 215.328 203.665 214.418 204.575C213.508 205.485 212.227 208.587 212.227 208.587ZM212.591 223.875C212.591 223.875 212.409 217.505 208.587 218.779C204.765 220.053 209.315 224.239 210.043 224.603C210.771 224.967 206.403 224.603 206.039 227.689C205.675 230.776 210.771 229.873 211.317 228.599C211.606 227.896 211.972 227.227 212.409 226.605C212.409 226.605 212.773 231.147 215.867 230.419C218.961 229.691 219.507 226.605 218.051 226.051C217.056 225.709 216.015 225.525 214.964 225.505C215.716 225.367 216.391 224.957 216.86 224.353C217.329 223.748 217.558 222.992 217.505 222.229C217.505 219.317 215.692 218.953 214.782 219.863C213.872 220.773 212.576 223.867 212.576 223.867L212.591 223.875ZM186.215 224.239C186.215 224.239 186.033 217.869 182.211 219.143C178.389 220.417 182.939 224.603 183.667 224.967C184.395 225.331 180.027 224.967 179.663 228.053C179.299 231.14 184.395 230.237 184.941 228.963C185.231 228.26 185.597 227.591 186.033 226.969C186.033 226.969 186.397 231.511 189.491 230.783C192.585 230.055 193.131 226.969 191.675 226.415C190.681 226.073 189.64 225.888 188.588 225.869C189.341 225.731 190.016 225.321 190.485 224.717C190.953 224.112 191.183 223.356 191.129 222.593C191.129 219.681 189.316 219.317 188.406 220.227C187.496 221.137 186.215 224.224 186.215 224.224V224.239ZM199.319 202.952C199.319 202.952 199.137 196.589 195.315 197.856C191.493 199.123 196.043 203.309 196.771 203.68C197.499 204.051 193.131 203.68 192.767 206.774C192.403 209.868 197.499 208.958 198.045 207.684C198.336 206.979 198.702 206.308 199.137 205.682C199.137 205.682 199.501 210.232 202.595 209.504C205.689 208.776 206.235 205.682 204.779 205.136C203.775 204.782 202.721 204.59 201.656 204.568C202.407 204.43 203.081 204.021 203.55 203.418C204.018 202.815 204.249 202.061 204.197 201.299C204.197 198.387 202.384 198.023 201.474 198.933C200.564 199.843 199.312 202.945 199.312 202.945L199.319 202.952Z" fill="#66A0F8"/>
</g>
<path d="M204.568 200.782C204.568 200.782 211.615 206.483 213.457 210.676C215.299 214.869 217.825 226.772 217.825 226.772H175.077C175.077 226.772 186.477 213.668 191.173 209.504C195.868 205.34 204.568 200.782 204.568 200.782Z" stroke="#263238" stroke-linecap="round" stroke-linejoin="round"/>
<path d="M175.077 226.772H195.963C195.788 222.564 195.191 213.974 193.182 211.848C192.032 210.618 190.066 211.258 188.202 212.387C182.852 217.854 175.077 226.772 175.077 226.772Z" stroke="#263238" stroke-linecap="round" stroke-linejoin="round"/>
<path d="M182.954 179.154C182.954 179.154 179.605 183.179 179.605 184.017C179.657 185.061 179.296 186.083 178.6 186.863C177.756 187.708 175.244 190.219 175.244 191.559C175.244 192.898 177.923 192.563 177.923 192.563C177.923 192.563 174.574 196.931 175.579 198.431C176.584 199.931 189.163 210.843 189.163 210.843L203.723 199.275L202.719 197.091C203.46 195.976 203.972 194.723 204.226 193.408C204.393 191.726 205.573 185.524 199.858 181.498C194.143 177.472 185.473 176.977 182.954 179.154Z" fill="white" stroke="#263238" stroke-linecap="round" stroke-linejoin="round"/>
<path d="M202.741 197.091C203.482 195.976 203.994 194.723 204.247 193.408C204.415 191.726 205.594 185.524 199.879 181.498C197.09 179.626 193.896 178.444 190.561 178.047C191.813 178.775 194.201 180.347 194.347 181.833C194.514 183.849 192.337 184.017 192.337 184.017C192.337 184.017 188.312 185.691 188.814 186.528C189.316 187.365 191.5 188.88 191.5 189.382C191.5 189.884 190.161 191.894 191.333 192.228C192.505 192.563 193.175 189.717 194.856 190.044C196.538 190.372 197.2 190.212 196.698 192.891C196.196 195.57 194.689 196.247 194.689 196.749C194.689 197.252 199.785 198.162 202.959 197.565L202.741 197.091Z" fill="#263238" stroke="#263238" stroke-linecap="round" stroke-linejoin="round"/>
<path d="M183.965 178.316C183.965 178.316 195.701 167.586 197.208 167.586C198.715 167.586 208.273 173.118 208.608 175.295C208.943 177.472 206.264 192.228 206.264 192.228L183.965 178.316Z" fill="white" stroke="#263238" stroke-linecap="round" stroke-linejoin="round"/>
<path d="M183.965 178.316L206.264 192.228C206.264 192.228 206.781 189.389 207.327 186.019L187.715 174.953C185.596 176.824 183.965 178.316 183.965 178.316Z" fill="#263238" stroke="#263238" stroke-linecap="round" stroke-linejoin="round"/>
<path d="M175.914 175.797C175.914 175.797 209.78 201.277 210.282 199.275C210.785 197.273 209.948 194.245 207.603 191.391C205.259 188.537 192.315 180.326 186.309 177.647C180.303 174.968 176.248 173.788 175.914 175.797Z" fill="white" stroke="#263238" stroke-linecap="round" stroke-linejoin="round"/>
<path d="M182.728 186.434C182.313 187.999 181.425 189.127 180.755 188.945C180.085 188.763 179.881 187.351 180.304 185.786C180.726 184.22 181.607 183.099 182.277 183.274C182.946 183.449 183.165 184.912 182.728 186.434Z" stroke="#263238" stroke-linecap="round" stroke-linejoin="round"/>
<path d="M182.742 186.434L193.182 190.554" stroke="#263238" stroke-linecap="round" stroke-linejoin="round"/>
<path d="M177.588 193.575C178.535 193.842 179.538 193.842 180.485 193.574C181.431 193.307 182.286 192.783 182.954 192.061" stroke="#263238" stroke-linecap="round" stroke-linejoin="round"/>
<path d="M182.451 191.056L183.965 193.066" stroke="#263238" stroke-linecap="round" stroke-linejoin="round"/>
<path d="M185.276 208.208L185.742 215.248L205.194 200.833L203.578 197.594L185.276 208.208Z" fill="white" stroke="#263238" stroke-linecap="round" stroke-linejoin="round"/>
<path d="M158.951 227.26L155.566 228.213L150.594 210.538C150.53 210.314 150.51 210.08 150.537 209.849C150.564 209.617 150.636 209.394 150.75 209.191C150.864 208.988 151.017 208.809 151.2 208.665C151.383 208.522 151.593 208.416 151.817 208.354C152.04 208.289 152.274 208.27 152.505 208.296C152.735 208.322 152.959 208.394 153.162 208.507C153.365 208.62 153.543 208.772 153.687 208.954C153.831 209.137 153.938 209.346 154.001 209.569L158.951 227.26Z" fill="#263238" stroke="#263238" stroke-linecap="round" stroke-linejoin="round"/>
<path d="M163.196 218.08C163.196 218.08 158.413 211.637 157.029 209.708C155.646 207.778 154.263 207.866 153.346 208.419C152.428 208.972 148.097 212.372 148.374 213.479C148.65 214.585 151.045 220.031 151.409 220.759C151.588 221.154 151.872 221.492 152.23 221.736C152.589 221.98 153.007 222.12 153.44 222.142C154.358 222.142 155.188 220.205 155.188 220.205H156.644C156.644 220.205 158.398 223.984 160.327 224.814C161.647 225.314 163.065 225.501 164.47 225.36L166.217 227.755H173.861L163.196 218.08Z" fill="white" stroke="#263238" stroke-linecap="round" stroke-linejoin="round"/>
<path d="M151.963 221.399C151.765 221.156 151.642 220.861 151.61 220.549C151.577 220.238 151.637 219.923 151.781 219.645C152.239 218.546 153.717 216.333 154.081 216.333C154.445 216.333 157.67 216.151 157.67 216.151" stroke="#263238" stroke-linecap="round" stroke-linejoin="round"/>
<path d="M150.586 218.08C150.586 218.08 152.239 214.491 153.069 214.127C153.899 213.763 157.306 213.755 157.306 213.755" stroke="#263238" stroke-linecap="round" stroke-linejoin="round"/>
<path d="M149.385 215.597C149.385 215.597 151.409 211.732 152.61 211.55C153.741 211.421 154.879 211.357 156.017 211.36" stroke="#263238" stroke-linecap="round" stroke-linejoin="round"/>
</g>
<path d="M168.896 172.536H166.566C162.699 172.538 158.926 173.73 155.759 175.95C152.593 178.171 150.187 181.313 148.869 184.948L135.241 222.601C135.096 223.003 135.05 223.434 135.107 223.857C135.163 224.281 135.321 224.684 135.567 225.034C135.812 225.384 136.138 225.67 136.517 225.867C136.897 226.064 137.318 226.167 137.745 226.168H206.752C207.358 226.168 207.958 226.048 208.517 225.816C209.077 225.584 209.585 225.244 210.013 224.815C210.441 224.387 210.78 223.878 211.012 223.318C211.243 222.758 211.361 222.158 211.36 221.552V178.484C211.361 177.703 211.208 176.93 210.91 176.208C210.612 175.487 210.175 174.831 209.623 174.279C209.071 173.726 208.416 173.288 207.695 172.989C206.974 172.69 206.201 172.536 205.42 172.536H168.896Z" stroke="#263238" stroke-linecap="round" stroke-linejoin="round"/>
<path d="M218.16 177.195V222.528C218.16 223.557 218.568 224.544 219.296 225.272C220.024 225.999 221.011 226.408 222.04 226.408H259.168L248.248 189.28C247.128 185.465 244.977 182.034 242.031 179.365C238.205 175.893 233.261 173.907 228.097 173.766L221.836 173.599C221.357 173.588 220.881 173.673 220.435 173.849C219.99 174.025 219.584 174.288 219.241 174.624C218.899 174.959 218.627 175.359 218.441 175.8C218.255 176.242 218.16 176.716 218.16 177.195Z" fill="#66A0F8"/>
<mask id="mask2_29_644" style="mask-type:luminance" maskUnits="userSpaceOnUse" x="218" y="173" width="42" height="54">
<path d="M218.16 177.195V222.528C218.16 223.557 218.568 224.544 219.296 225.272C220.024 225.999 221.011 226.408 222.04 226.408H259.168L248.248 189.28C247.128 185.465 244.977 182.034 242.031 179.365C238.205 175.893 233.261 173.907 228.097 173.766L221.836 173.599C221.357 173.588 220.881 173.673 220.435 173.849C219.99 174.025 219.584 174.288 219.241 174.624C218.899 174.959 218.627 175.359 218.441 175.8C218.255 176.242 218.16 176.716 218.16 177.195Z" fill="white"/>
</mask>
<g mask="url(#mask2_29_644)">
<path d="M248.604 190.459L219.645 225.564C220.326 226.106 221.169 226.403 222.04 226.408H235.58L253.147 205.915L248.604 190.459Z" fill="white"/>
<path d="M257.443 220.533L255.135 212.678L244.12 226.408H252.252L257.443 220.533Z" fill="white"/>
</g>
<path d="M218.16 177.195V222.528C218.16 223.557 218.568 224.544 219.296 225.272C220.024 225.999 221.011 226.408 222.04 226.408H259.168L248.248 189.28C247.128 185.465 244.977 182.034 242.031 179.365C238.205 175.893 233.261 173.907 228.097 173.766L221.836 173.599C221.357 173.588 220.881 173.673 220.435 173.849C219.99 174.025 219.584 174.288 219.241 174.624C218.899 174.959 218.627 175.359 218.441 175.8C218.255 176.242 218.16 176.716 218.16 177.195Z" stroke="#263238" stroke-linecap="round" stroke-linejoin="round"/>
<path d="M160.888 173.417C158.134 174.287 155.617 175.78 153.533 177.78C151.448 179.78 149.852 182.233 148.869 184.948L135.241 222.601C135.096 223.003 135.05 223.434 135.107 223.857C135.163 224.281 135.321 224.684 135.567 225.034C135.812 225.384 136.138 225.67 136.517 225.867C136.897 226.064 137.318 226.167 137.745 226.168H160.888V173.417Z" stroke="#263238" stroke-linecap="round" stroke-linejoin="round"/>
<path d="M87.4472 255.419C87.4472 255.419 84.9355 257.224 84.9355 259.408C84.9355 261.592 86.3915 264.504 87.8475 264.992C89.3035 265.48 89.5947 263.354 89.5947 263.354C89.5947 263.354 87.5418 258.214 87.4472 255.419Z" fill="#263238" stroke="#263238" stroke-linecap="round" stroke-linejoin="round"/>
<path d="M92.6584 233.853L90.5053 233.446C89.3873 233.234 88.3095 233.969 88.0981 235.087L85.5262 248.685C85.3148 249.803 86.0497 250.881 87.1677 251.093L89.3208 251.5C90.4388 251.711 91.5166 250.976 91.728 249.858L94.2999 236.26C94.5114 235.142 93.7764 234.064 92.6584 233.853Z" fill="white" stroke="#263238" stroke-linecap="round" stroke-linejoin="round"/>
<path d="M280.52 243.88H278.824C276.946 243.88 275.424 245.402 275.424 247.28V256.984C275.424 258.862 276.946 260.384 278.824 260.384H280.52C282.397 260.384 283.92 258.862 283.92 256.984V247.28C283.92 245.402 282.397 243.88 280.52 243.88Z" fill="white" stroke="#263238" stroke-linecap="round" stroke-linejoin="round"/>
<path d="M112.716 293.144C125.248 293.144 135.408 282.984 135.408 270.452C135.408 257.92 125.248 247.76 112.716 247.76C100.184 247.76 90.0244 257.92 90.0244 270.452C90.0244 282.984 100.184 293.144 112.716 293.144Z" fill="#263238"/>
<mask id="mask3_29_644" style="mask-type:luminance" maskUnits="userSpaceOnUse" x="90" y="247" width="46" height="47">
<path d="M112.716 293.144C125.248 293.144 135.408 282.984 135.408 270.452C135.408 257.92 125.248 247.76 112.716 247.76C100.184 247.76 90.0244 257.92 90.0244 270.452C90.0244 282.984 100.184 293.144 112.716 293.144Z" fill="white"/>
</mask>
<g mask="url(#mask3_29_644)">
<path d="M111.748 241.696L112.716 270.452L98.2798 246.792L111.748 241.696ZM128.856 292.991L112.723 270.423L115.803 299.033L128.856 292.991Z" fill="white"/>
</g>
<path d="M112.716 293.144C125.248 293.144 135.408 282.984 135.408 270.452C135.408 257.92 125.248 247.76 112.716 247.76C100.184 247.76 90.0244 257.92 90.0244 270.452C90.0244 282.984 100.184 293.144 112.716 293.144Z" stroke="#263238" stroke-linecap="round" stroke-linejoin="round"/>
<path d="M112.716 285.376C120.958 285.376 127.64 278.694 127.64 270.452C127.64 262.21 120.958 255.528 112.716 255.528C104.474 255.528 97.792 262.21 97.792 270.452C97.792 278.694 104.474 285.376 112.716 285.376Z" fill="white" stroke="#263238" stroke-linecap="round" stroke-linejoin="round"/>
<path d="M112.716 281.248C118.679 281.248 123.512 276.415 123.512 270.452C123.512 264.489 118.679 259.656 112.716 259.656C106.754 259.656 101.92 264.489 101.92 270.452C101.92 276.415 106.754 281.248 112.716 281.248Z" fill="white" stroke="#263238" stroke-linecap="round" stroke-linejoin="round"/>
<path d="M260.799 281.3C266.773 270.283 262.685 256.509 251.668 250.535C240.652 244.561 226.878 248.649 220.904 259.665C214.929 270.682 219.017 284.456 230.034 290.43C241.051 296.404 254.825 292.316 260.799 281.3Z" fill="#263238"/>
<mask id="mask4_29_644" style="mask-type:luminance" maskUnits="userSpaceOnUse" x="218" y="247" width="46" height="47">
<path d="M260.799 281.3C266.773 270.283 262.685 256.509 251.668 250.535C240.652 244.561 226.878 248.649 220.904 259.665C214.929 270.682 219.017 284.456 230.034 290.43C241.051 296.404 254.825 292.316 260.799 281.3Z" fill="white"/>
</mask>
<g mask="url(#mask4_29_644)">
<path d="M267.955 260.806L240.844 270.452L259.044 249.515L267.955 260.806ZM224.275 292.663L240.859 270.452L214.534 282.056L224.275 292.663Z" fill="white"/>
</g>
<path d="M260.799 281.3C266.773 270.283 262.685 256.509 251.668 250.535C240.652 244.561 226.878 248.649 220.904 259.665C214.929 270.682 219.017 284.456 230.034 290.43C241.051 296.404 254.825 292.316 260.799 281.3Z" stroke="#263238" stroke-linecap="round" stroke-linejoin="round"/>
<path d="M254.377 276.736C257.85 269.261 254.606 260.386 247.131 256.913C239.656 253.44 230.781 256.684 227.308 264.159C223.835 271.634 227.08 280.509 234.555 283.982C242.029 287.455 250.904 284.211 254.377 276.736Z" fill="white" stroke="#263238" stroke-linecap="round" stroke-linejoin="round"/>
<path d="M243.84 280.808C249.57 279.159 252.879 273.177 251.231 267.447C249.582 261.717 243.601 258.408 237.871 260.057C232.14 261.705 228.832 267.687 230.48 273.417C232.129 279.147 238.11 282.456 243.84 280.808Z" fill="white" stroke="#263238" stroke-linecap="round" stroke-linejoin="round"/>
<path d="M138.662 221.618C140.416 225.498 140.846 229.109 139.55 229.684C138.254 230.259 135.83 227.573 134.075 223.693C132.321 219.812 131.891 216.194 133.187 215.619C134.483 215.044 136.9 217.73 138.662 221.618Z" fill="#263238" stroke="#263238" stroke-linecap="round" stroke-linejoin="round"/>
<path d="M19.9106 293.144H347.321" stroke="#263238" stroke-linecap="round" stroke-linejoin="round"/>
<path d="M56.3047 90.3475C55.8756 89.9518 55.3857 89.6278 54.8536 89.3879L53.2091 88.6411L49.1152 90.1308L58.9398 95.2191C59.1685 95.3377 59.4193 95.4076 59.6764 95.4242C59.9335 95.4409 60.1913 95.404 60.4334 95.3159L60.8203 95.1766C60.8732 95.1573 60.9203 95.1249 60.957 95.0823C60.9938 95.0397 61.019 94.9884 61.0303 94.9332C61.0415 94.8781 61.0384 94.821 61.0213 94.7674C61.0042 94.7138 60.9737 94.6655 60.9325 94.6271L56.3047 90.3475Z" fill="#66A0F8"/>
<path opacity="0.3" d="M56.3047 90.3475C55.8756 89.9518 55.3857 89.6278 54.8536 89.3879L53.2091 88.6411L49.1152 90.1308L58.9398 95.2191C59.1685 95.3377 59.4193 95.4076 59.6764 95.4242C59.9335 95.4409 60.1913 95.404 60.4334 95.3159L60.8203 95.1766C60.8732 95.1573 60.9203 95.1249 60.957 95.0823C60.9938 95.0397 61.019 94.9884 61.0303 94.9332C61.0415 94.8781 61.0384 94.821 61.0213 94.7674C61.0042 94.7138 60.9737 94.6655 60.9325 94.6271L56.3047 90.3475Z" fill="white"/>
<path d="M56.463 81.6489L52.6709 65.4437L48.7512 66.8676L47.8999 85.3946L56.7803 82.5157L56.463 81.6489Z" fill="#66A0F8"/>
<path opacity="0.6" d="M56.463 81.6489L52.6709 65.4437L48.7512 66.8676L47.8999 85.3946L56.7803 82.5157L56.463 81.6489Z" fill="white"/>
<path d="M80.0859 88.1651L111.924 102.846C112.392 103.063 112.915 103.136 113.425 103.055L114.404 102.896C114.536 102.874 114.659 102.817 114.761 102.731C114.862 102.645 114.939 102.533 114.982 102.407C115.025 102.281 115.034 102.145 115.006 102.015C114.979 101.884 114.916 101.764 114.826 101.666C114.52 101.344 114.199 101.038 113.862 100.749C112.152 99.2704 93.4007 83.336 93.4007 83.336L80.0859 88.1651Z" fill="#66A0F8"/>
<path opacity="0.3" d="M80.0859 88.1651L111.924 102.846C112.392 103.063 112.915 103.136 113.425 103.055L114.404 102.896C114.536 102.874 114.659 102.817 114.761 102.731C114.862 102.645 114.939 102.533 114.982 102.407C115.025 102.281 115.034 102.145 115.006 102.015C114.979 101.884 114.916 101.764 114.826 101.666C114.52 101.344 114.199 101.038 113.862 100.749C112.152 99.2704 93.4007 83.336 93.4007 83.336L80.0859 88.1651Z" fill="white"/>
<path d="M42.1886 88.0722C42.0598 88.2901 41.9821 88.5343 41.9613 88.7866C41.9404 89.0388 41.977 89.2925 42.0682 89.5285C42.1594 89.7646 42.3029 89.9769 42.488 90.1496C42.673 90.3223 42.8948 90.4508 43.1366 90.5255C47.4472 91.8488 63.045 95.4667 85.511 87.2906C111.011 78.0039 117.012 73.5153 116.339 70.0522C116.276 69.7665 116.169 69.4923 116.022 69.2396C115.12 67.6299 110.728 61.4194 99.5339 65.4785L48.1785 84.1757C48.1785 84.1757 43.5777 85.7622 42.1886 88.0722Z" fill="#66A0F8"/>
<path d="M57.9644 80.6158L99.5339 65.4785C110.728 61.4078 115.105 67.6183 116.022 69.228C116.169 69.4807 116.276 69.7549 116.339 70.0406C117.012 73.5231 111.011 78.0039 85.511 87.279C63.045 95.4552 47.4472 91.8372 43.1366 90.5139C42.8948 90.4392 42.673 90.3107 42.488 90.138C42.3029 89.9654 42.1594 89.753 42.0682 89.517C41.977 89.2809 41.9404 89.0272 41.9613 88.775C41.9821 88.5228 42.0598 88.2785 42.1886 88.0606C43.5777 85.739 48.1785 84.1641 48.1785 84.1641L57.9644 80.6158Z" fill="#66A0F8"/>
<path opacity="0.1" d="M96.9841 74.9045C78.4494 81.9856 54.2227 89.531 44.6304 90.9434C50.4113 92.4215 65.1385 94.7045 85.5112 87.2906C110.906 78.0504 116.962 73.5502 116.343 70.0948C113.925 69.8046 108.62 70.4585 96.9841 74.9045Z" fill="black"/>
<g opacity="0.7">
<path d="M104.767 67.8232L50.7466 86.9739L50.8759 87.3386L104.896 68.1879L104.767 67.8232Z" fill="black"/>
</g>
<path d="M68.2999 82.063L77.4163 78.7468C77.878 78.5831 78.2648 78.2578 78.5052 77.831C78.7456 77.4042 78.8234 76.9049 78.7242 76.4252C78.5152 75.4617 77.7994 74.297 75.8221 73.3567L29.8336 55.2322C29.5376 55.1158 29.223 55.0542 28.905 55.0503L25.2793 55C25.2197 55 25.1618 55.0193 25.1142 55.055C25.0666 55.0908 25.0319 55.141 25.0153 55.1982C24.9987 55.2554 25.0011 55.3164 25.0222 55.3721C25.0433 55.4278 25.0819 55.4751 25.1322 55.5069L68.2999 82.063Z" fill="#66A0F8"/>
<path opacity="0.3" d="M68.2999 82.063L77.4163 78.7468C77.878 78.5831 78.2648 78.2578 78.5052 77.831C78.7456 77.4042 78.8234 76.9049 78.7242 76.4252C78.5152 75.4617 77.7994 74.297 75.8221 73.3567L29.8336 55.2322C29.5376 55.1158 29.223 55.0542 28.905 55.0503L25.2793 55C25.2197 55 25.1618 55.0193 25.1142 55.055C25.0666 55.0908 25.0319 55.141 25.0153 55.1982C24.9987 55.2554 25.0011 55.3164 25.0222 55.3721C25.0433 55.4278 25.0819 55.4751 25.1322 55.5069L68.2999 82.063Z" fill="white"/>
<path d="M47.54 105.357H46.2012V105.164H47.5361L47.54 105.357Z" fill="#66A0F8"/>
<path d="M51.0146 105.365V105.171C52.1755 105.171 53.3363 105.171 54.4972 105.144V105.338C53.3325 105.334 52.1716 105.361 51.0146 105.365Z" fill="#66A0F8"/>
<path d="M57.9648 105.287V105.094C64.45 104.978 70.7882 104.742 76.1281 104.529V104.723C70.7882 104.947 64.4539 105.171 57.9648 105.287Z" fill="#66A0F8"/>
<path d="M84.7288 104.17L79.6177 104.38L79.6256 104.573L84.7367 104.364L84.7288 104.17Z" fill="#66A0F8"/>
<path d="M88.2275 104.208V104.014C90.7079 103.898 93.2578 103.774 95.7807 103.627C101.271 103.345 105.485 103.105 109.44 102.854V103.047C105.481 103.299 101.268 103.538 95.773 103.821C93.2501 103.968 90.7079 104.092 88.2275 104.208Z" fill="#66A0F8"/>
<path d="M17.7159 82.0197L17 84.8161L17.1874 84.8641L17.9033 82.0677L17.7159 82.0197Z" fill="#66A0F8"/>
<path d="M20.5263 71.3195L18.6943 78.2437L18.8814 78.2931L20.7134 71.369L20.5263 71.3195Z" fill="#66A0F8"/>
<path d="M21.6609 67.8311L21.479 67.8002C21.479 67.7266 23.4911 60.336 24.4546 56.66L24.6403 56.7103C23.673 60.3669 21.6802 67.7576 21.6609 67.8311Z" fill="#66A0F8"/>
<g opacity="0.7">
<path d="M55.012 84.5316C54.7102 84.64 54.4935 84.4426 54.5244 84.0944L54.5786 83.4598C54.5981 83.2816 54.6637 83.1116 54.7689 82.9664C54.874 82.8212 55.0151 82.7059 55.1784 82.6317C55.4763 82.5234 55.693 82.7169 55.662 83.069L55.6079 83.6997C55.589 83.8781 55.5241 84.0485 55.4197 84.1943C55.3153 84.3401 55.1748 84.4563 55.012 84.5316Z" fill="black"/>
<path d="M57.1287 83.7578C56.8308 83.87 56.6141 83.6726 56.645 83.3244L56.6992 82.6898C56.7187 82.5121 56.7839 82.3425 56.8883 82.1974C56.9927 82.0523 57.1328 81.9367 57.2951 81.8617C57.5969 81.7495 57.8136 81.9469 57.7827 82.2951L57.7285 82.9297C57.7089 83.1079 57.6434 83.2779 57.5382 83.4231C57.4331 83.5683 57.2919 83.6836 57.1287 83.7578Z" fill="black"/>
<path d="M59.2491 82.9877C58.9512 83.0961 58.7345 82.9026 58.7616 82.5505L58.8196 81.9198C58.8385 81.7414 58.9033 81.571 59.0078 81.4252C59.1122 81.2794 59.2527 81.1631 59.4155 81.0878C59.7135 80.9795 59.934 81.1768 59.903 81.5251L59.845 82.1597C59.8255 82.3374 59.7603 82.507 59.6559 82.652C59.5515 82.7971 59.4114 82.9128 59.2491 82.9877Z" fill="black"/>
<path d="M61.3694 82.2177C61.0714 82.3261 60.8508 82.1326 60.8818 81.7805L60.9399 81.1459C60.9594 80.9682 61.0245 80.7986 61.1289 80.6535C61.2333 80.5084 61.3735 80.3928 61.5357 80.3178C61.8337 80.2095 62.0504 80.403 62.0194 80.7551L61.9653 81.3858C61.9464 81.5642 61.8815 81.7346 61.7771 81.8804C61.6726 82.0262 61.5322 82.1424 61.3694 82.2177Z" fill="black"/>
<path d="M63.49 81.4477C63.1882 81.556 62.9715 81.3587 63.0025 81.0104L63.0566 80.3758C63.0762 80.1976 63.1417 80.0276 63.2469 79.8824C63.352 79.7372 63.4932 79.6219 63.6564 79.5478C63.9543 79.4394 64.171 79.6329 64.1401 79.9812L64.0859 80.6158C64.0659 80.7938 64.0006 80.9637 63.8963 81.1093C63.792 81.255 63.6521 81.3715 63.49 81.4477Z" fill="black"/>
<path d="M79.6565 75.5623C79.3586 75.6706 79.1419 75.4771 79.1729 75.125L79.227 74.4943C79.2459 74.3159 79.3108 74.1455 79.4152 73.9997C79.5197 73.8539 79.6601 73.7377 79.8229 73.6624C80.1247 73.554 80.3414 73.7514 80.3105 74.0996L80.2563 74.7342C80.2368 74.9124 80.1712 75.0824 80.066 75.2276C79.9609 75.3728 79.8198 75.4881 79.6565 75.5623Z" fill="black"/>
<path d="M81.7772 74.7923C81.4792 74.9006 81.2625 74.7033 81.2935 74.355L81.3476 73.7204C81.3672 73.5427 81.4323 73.3731 81.5367 73.228C81.6411 73.083 81.7813 72.9673 81.9435 72.8924C82.2415 72.784 82.462 72.9775 82.4311 73.3296L82.3731 73.9603C82.3549 74.1389 82.2904 74.3097 82.1858 74.4556C82.0813 74.6015 81.9404 74.7176 81.7772 74.7923Z" fill="black"/>
<path d="M83.8972 74.0222C83.5992 74.1305 83.3787 73.9332 83.4096 73.5849L83.4677 72.9503C83.4872 72.7727 83.5524 72.6031 83.6568 72.458C83.7612 72.3129 83.9013 72.1972 84.0636 72.1223C84.3615 72.0101 84.5782 72.2074 84.5511 72.5557L84.4931 73.1903C84.4731 73.3683 84.4078 73.5382 84.3035 73.6838C84.1992 73.8295 84.0593 73.946 83.8972 74.0222Z" fill="black"/>
<path d="M86.0178 73.2483C85.716 73.3566 85.4993 73.1632 85.5303 72.811L85.5845 72.1803C85.6034 72.0014 85.6686 71.8306 85.7738 71.6847C85.879 71.5388 86.0205 71.4228 86.1842 71.3484C86.4822 71.24 86.6989 71.4374 86.6679 71.7856L86.6137 72.4202C86.5942 72.5979 86.5291 72.7675 86.4247 72.9126C86.3203 73.0577 86.1801 73.1733 86.0178 73.2483Z" fill="black"/>
<path d="M88.1346 72.4783C87.8366 72.5866 87.6199 72.3932 87.6509 72.041L87.7051 71.4103C87.724 71.232 87.7888 71.0616 87.8932 70.9157C87.9977 70.7699 88.1382 70.6537 88.301 70.5784C88.6028 70.4701 88.8195 70.6635 88.7885 71.0156L88.7343 71.6464C88.7154 71.8252 88.6502 71.9961 88.545 72.142C88.4398 72.2879 88.2983 72.4038 88.1346 72.4783Z" fill="black"/>
<path d="M90.406 71.6696C90.108 71.778 89.8875 71.5806 89.9184 71.2324L89.9765 70.5978C89.9953 70.4199 90.0601 70.2499 90.1646 70.1047C90.2691 69.9595 90.4096 69.844 90.5724 69.7697C90.8703 69.6614 91.087 69.8548 91.056 70.2031L91.0019 70.8377C90.9819 71.0157 90.9166 71.1856 90.8123 71.3313C90.708 71.4769 90.5681 71.5934 90.406 71.6696Z" fill="black"/>
<path d="M92.5266 70.8957C92.2248 71.004 92.0081 70.8105 92.0391 70.4623L92.0932 69.8277C92.1088 69.6479 92.1709 69.4753 92.2733 69.3267C92.3757 69.1782 92.515 69.0588 92.6775 68.9803C92.9755 68.8719 93.1922 69.0693 93.1612 69.4175L93.107 70.0521C93.0916 70.2309 93.0299 70.4027 92.9282 70.5505C92.8265 70.6984 92.6881 70.8173 92.5266 70.8957Z" fill="black"/>
<path d="M94.6429 70.1218C94.3449 70.2301 94.1282 70.0367 94.1592 69.6845L94.2134 69.0538C94.2323 68.8755 94.2971 68.705 94.4016 68.5592C94.506 68.4134 94.6465 68.2972 94.8093 68.2219C95.1111 68.1135 95.3278 68.307 95.2968 68.6591L95.2426 69.2899C95.2238 69.4687 95.1585 69.6396 95.0533 69.7855C94.9481 69.9314 94.8066 70.0473 94.6429 70.1218Z" fill="black"/>
<path d="M96.7633 69.3479C96.4653 69.4563 96.2486 69.2589 96.2757 68.9107L96.3338 68.2761C96.3524 68.0966 96.4175 67.9251 96.5227 67.7786C96.6279 67.632 96.7695 67.5154 96.9335 67.4403C97.2315 67.3319 97.452 67.5254 97.4211 67.8775L97.363 68.5082C97.3451 68.6884 97.2802 68.8607 97.175 69.008C97.0698 69.1553 96.9278 69.2725 96.7633 69.3479Z" fill="black"/>
<path d="M98.8684 68.574C98.5704 68.6863 98.3499 68.4889 98.3808 68.1407L98.4389 67.5061C98.4581 67.3278 98.5231 67.1576 98.6275 67.0118C98.7319 66.8661 98.8722 66.7497 99.0348 66.6741C99.3327 66.5658 99.5494 66.7631 99.5184 67.1114L99.4643 67.746C99.4447 67.9237 99.3796 68.0933 99.2752 68.2384C99.1708 68.3834 99.0307 68.4991 98.8684 68.574Z" fill="black"/>
</g>
<path opacity="0.7" d="M107.47 65.1109C106.752 65.3249 106.085 65.6816 105.508 66.1595C105.508 66.1595 106.36 66.1402 107.575 66.1866L107.47 65.1109Z" fill="black"/>
<g opacity="0.7">
<path d="M110.337 66.3878C111.504 66.4998 112.656 66.7358 113.773 67.092C112.794 66.1727 111.614 65.4955 110.326 65.1147L110.337 66.3878Z" fill="black"/>
<path d="M109.626 64.9677C109.119 64.8923 108.604 64.8923 108.097 64.9677L108.217 66.2098C108.666 66.233 109.146 66.2679 109.637 66.3104L109.626 64.9677Z" fill="black"/>
</g>
<path d="M67.9128 68.3496C65.1161 69.6057 62.3881 71.0097 59.7405 72.5557C59.3669 73.5766 59.3658 74.6966 59.7374 75.7182C60.1091 76.7398 60.8297 77.5973 61.772 78.1394C64.7944 77.6216 67.7871 76.9435 70.7375 76.1079C72.3434 75.5236 73.0167 73.3103 72.235 71.1705C71.4534 69.0307 69.5225 67.7653 67.9128 68.3496Z" fill="#66A0F8"/>
<path opacity="0.1" d="M67.9128 68.3496C65.1161 69.6057 62.3881 71.0097 59.7405 72.5557C59.3669 73.5766 59.3658 74.6966 59.7374 75.7182C60.1091 76.7398 60.8297 77.5973 61.772 78.1394C64.7944 77.6216 67.7871 76.9435 70.7375 76.1079C72.3434 75.5236 73.0167 73.3103 72.235 71.1705C71.4534 69.0307 69.5225 67.7653 67.9128 68.3496Z" fill="black"/>
<path opacity="0.7" d="M71.647 71.3833C72.2699 73.0936 71.7321 74.8658 70.4513 75.3224C69.1705 75.779 67.6266 74.7807 67.0036 73.0742C66.3806 71.3678 66.9185 69.5917 68.1993 69.1351C69.4801 68.6785 71.0085 69.6769 71.647 71.3833Z" fill="black"/>
<path d="M97.6574 85.8047C95.1242 86.9417 92.6533 88.2127 90.2551 89.6123C89.9167 90.5367 89.9156 91.5509 90.2518 92.4761C90.5881 93.4013 91.2401 94.1782 92.0931 94.6696C94.8324 94.2014 97.5448 93.5879 100.219 92.8316C101.674 92.3015 102.281 90.301 101.577 88.3586C100.873 86.4161 99.1123 85.2746 97.6574 85.8047Z" fill="#66A0F8"/>
<path opacity="0.1" d="M97.6574 85.8047C95.1242 86.9417 92.6533 88.2127 90.2551 89.6123C89.9167 90.5367 89.9156 91.5509 90.2518 92.4761C90.5881 93.4013 91.2401 94.1782 92.0931 94.6696C94.8324 94.2014 97.5448 93.5879 100.219 92.8316C101.674 92.3015 102.281 90.301 101.577 88.3586C100.873 86.4161 99.1123 85.2746 97.6574 85.8047Z" fill="black"/>
<path opacity="0.7" d="M101.039 88.552C101.6 90.0998 101.117 91.6979 99.9559 92.1197C98.7951 92.5414 97.3943 91.6321 96.8333 90.0843C96.2722 88.5365 96.7559 86.9385 97.9167 86.5167C99.0776 86.0949 100.474 87.0042 101.039 88.552Z" fill="black"/>
<path d="M47.834 86.2227L32.8051 79.4588C32.5077 79.3261 32.1865 79.2551 31.8609 79.2499L29.8488 79.2267C29.7504 79.2244 29.6542 79.2556 29.576 79.3152C29.4977 79.3749 29.4421 79.4594 29.4182 79.5548C29.3944 79.6503 29.4037 79.751 29.4447 79.8405C29.4856 79.9299 29.5558 80.0028 29.6437 80.047L44.1542 87.5615L47.834 86.2227Z" fill="#66A0F8"/>
<path opacity="0.4" d="M47.834 86.2227L32.8051 79.4588C32.5077 79.3261 32.1865 79.2551 31.8609 79.2499L29.8488 79.2267C29.7504 79.2244 29.6542 79.2556 29.576 79.3152C29.4977 79.3749 29.4421 79.4594 29.4182 79.5548C29.3944 79.6503 29.4037 79.751 29.4447 79.8405C29.4856 79.9299 29.5558 80.0028 29.6437 80.047L44.1542 87.5615L47.834 86.2227Z" fill="white"/>
</svg>
