<svg width="100" height="100" viewBox="0 0 100 100" fill="none" xmlns="http://www.w3.org/2000/svg">
<path fill-rule="evenodd" clip-rule="evenodd" d="M50.1536 14.1294C43.3536 20.5008 45.5394 33.7722 56.6965 35.7079C60.1608 36.3151 62.9179 38.9508 63.6751 42.3937L63.8036 42.9794C65.0465 48.6579 69.2322 51.9079 73.8394 52.7151C72.5751 63.7508 66.6108 74.5294 60.0251 82.7079C56.6375 86.9831 52.7449 90.8325 48.4322 94.1722C46.7058 95.5007 44.8514 96.654 42.8965 97.6151C41.1822 98.4294 39.3036 99.0437 37.4822 99.0437C35.6536 99.0437 33.7822 98.4294 32.0608 97.6151C30.1083 96.6536 28.2564 95.5003 26.5322 94.1722C22.2196 90.8325 18.327 86.983 14.9394 82.7079C7.51078 73.4865 0.867923 60.9579 0.867923 48.4937C0.865397 42.5931 2.28925 36.7794 5.01816 31.5478C7.74708 26.3162 11.7002 21.8217 16.5407 18.4474C21.3812 15.0731 26.9657 12.9188 32.8183 12.1682C38.6709 11.4176 44.6183 12.0929 50.1536 14.1365V14.1294Z" fill="#8FBFFA"/>
<path d="M25.2822 48.4865C25.2822 50.0886 25.5978 51.6751 26.2109 53.1553C26.824 54.6354 27.7226 55.9803 28.8555 57.1132C29.9884 58.2461 31.3333 59.1447 32.8135 59.7578C34.2937 60.371 35.8801 60.6865 37.4822 60.6865C39.0844 60.6865 40.6708 60.371 42.151 59.7578C43.6311 59.1447 44.9761 58.2461 46.1089 57.1132C47.2418 55.9803 48.1404 54.6354 48.7536 53.1553C49.3667 51.6751 49.6822 50.0886 49.6822 48.4865C49.6822 45.2509 48.3969 42.1478 46.1089 39.8598C43.821 37.5719 40.7179 36.2865 37.4822 36.2865C34.2466 36.2865 31.1435 37.5719 28.8555 39.8598C26.5676 42.1478 25.2822 45.2509 25.2822 48.4865Z" fill="#2859C5"/>
<path fill-rule="evenodd" clip-rule="evenodd" d="M81.6036 5.16509C80.275 -0.656339 71.9679 -0.620625 70.6964 5.20795L70.6465 5.43652L70.5536 5.86509C69.8759 8.90032 68.3127 11.6662 66.0621 13.8125C63.8115 15.9589 60.9747 17.3891 57.9107 17.9222C51.8322 18.9794 51.8322 27.7079 57.9107 28.7579C60.9857 29.293 63.8318 30.7316 66.086 32.8904C68.3402 35.0492 69.9005 37.8304 70.5679 40.8794L70.6964 41.4651C71.9679 47.3008 80.275 47.3365 81.6036 41.5151L81.7607 40.8294C83.175 34.6151 88.1893 29.8579 94.4679 28.7651C100.554 27.7079 100.554 18.9722 94.4679 17.9079C91.3233 17.3632 88.4171 15.8797 86.1313 13.6525C83.8455 11.4254 82.2871 8.55873 81.6607 5.42938L81.6036 5.16509Z" fill="#2859C5"/>
</svg>
