<svg width="101" height="101" viewBox="0 0 101 101" fill="none" xmlns="http://www.w3.org/2000/svg">
<path d="M6.269 27.1582L16.0547 24.0154C16.7126 23.8102 17.4183 23.8171 18.072 24.035C18.7257 24.2529 19.2944 24.6708 19.6976 25.2296L26.4119 35.8725L63.269 17.5154C66.1752 15.8111 69.4185 14.7618 72.7722 14.441C76.126 14.1201 79.5093 14.5354 82.686 15.6577C85.8626 16.7801 88.7558 18.5825 91.1636 20.939C93.5714 23.2955 95.4357 26.1493 96.6261 29.3011C97.1173 30.8924 96.957 32.6136 96.1802 34.0867C95.4034 35.5599 94.0738 36.6646 92.4833 37.1582L68.269 45.0154L65.8404 45.8011L61.269 61.4439C61.1301 61.9843 60.8528 62.4793 60.4646 62.8801C60.0763 63.2808 59.5904 63.5736 59.0547 63.7296L48.0547 67.3011C47.4775 67.5505 46.8427 67.6364 46.2199 67.5493C45.5971 67.4622 45.0103 67.2055 44.5236 66.8073C44.0369 66.4091 43.6691 65.8847 43.4604 65.2915C43.2517 64.6983 43.2102 64.0591 43.3404 63.4439L45.6261 52.3011L44.0547 52.8011L20.4119 60.4439C19.6479 60.7273 18.8352 60.8558 18.021 60.822C17.2069 60.7883 16.4076 60.5928 15.6697 60.2472C14.9319 59.9015 14.2701 59.4125 13.7231 58.8086C13.176 58.2047 12.7546 57.498 12.4833 56.7296L4.19757 31.0154C3.97348 30.2293 4.06445 29.3869 4.45117 28.6668C4.83789 27.9467 5.48994 27.4055 6.269 27.1582Z" fill="#D7E0FF"/>
<path d="M6.269 27.1582L16.0547 24.0154C16.7126 23.8102 17.4183 23.8171 18.072 24.035C18.7257 24.2529 19.2944 24.6708 19.6976 25.2296L26.4119 35.8725L63.269 17.5154C66.1752 15.8111 69.4185 14.7618 72.7722 14.441C76.126 14.1201 79.5093 14.5354 82.686 15.6577C85.8626 16.7801 88.7558 18.5825 91.1636 20.939C93.5714 23.2955 95.4357 26.1493 96.6261 29.3011C97.1173 30.8924 96.957 32.6136 96.1802 34.0867C95.4034 35.5599 94.0738 36.6646 92.4833 37.1582L68.269 45.0154L65.8404 45.8011L61.269 61.4439C61.1301 61.9843 60.8528 62.4793 60.4646 62.8801C60.0763 63.2808 59.5904 63.5736 59.0547 63.7296L48.0547 67.3011C47.4775 67.5505 46.8427 67.6364 46.2199 67.5493C45.5971 67.4622 45.0103 67.2055 44.5236 66.8073C44.0369 66.4091 43.6691 65.8847 43.4604 65.2915C43.2517 64.6983 43.2102 64.0591 43.3404 63.4439L45.6261 52.3011L44.0547 52.8011L20.4119 60.4439C19.6479 60.7273 18.8352 60.8558 18.021 60.822C17.2069 60.7883 16.4076 60.5928 15.6697 60.2472C14.9319 59.9015 14.2701 59.4125 13.7231 58.8086C13.176 58.2047 12.7546 57.498 12.4833 56.7296L4.19757 31.0154C3.97348 30.2293 4.06445 29.3869 4.45117 28.6668C4.83789 27.9467 5.48994 27.4055 6.269 27.1582Z" stroke="#4147D5" stroke-linecap="round" stroke-linejoin="round"/>
<path d="M96.9118 96.5868H4.05469" stroke="#4147D5" stroke-linecap="round" stroke-linejoin="round"/>
</svg>
